<svg xmlns="http://www.w3.org/2000/svg" width="109.45" height="97.658"><path d="M48.51 97.266c2.352-.211 5.952-.208 8 .007s.124.388-4.276.384c-4.4-.004-6.076-.18-3.724-.39zm-7.964-.95c.722-.288 1.585-.253 1.917.08.332.332-.258.568-1.312.525-1.165-.048-1.402-.285-.605-.604zm22 0c.722-.288 1.585-.253 1.917.08.332.332-.258.568-1.312.525-1.165-.048-1.402-.285-.605-.604zm9.188-2.733c0-.87.712-1.583 1.583-1.583s1.405.534 1.188 1.187c-.618 1.854-2.771 2.162-2.771.396zm-31.75-2.128C25.172 87.465 13.294 75.894 8.63 60.909c-2.08-6.682-2.55-18.386-.784-19.477.787-.487 1.006 1.46.75 6.69-.32 6.537-.161 7.362 1.39 7.24 1.761-.14 2.219 2.076 1.798 8.718-.09 1.419.537 3.161 1.394 3.872.856.711 1.557 2.138 1.557 3.17 0 1.033.45 1.878 1 1.878s1-.9 1-2 .46-2 1.022-2c.561 0 1.536-1.13 2.165-2.51.973-2.137.82-2.853-1.028-4.821-1.977-2.105-2.156-3.274-1.999-13.085.122-7.593.544-10.916 1.43-11.256C21.81 35.99 19.72 29 15.833 29c-3.592 0-4.347 2.485-4.168 13.715.094 5.897-.106 10.444-.445 10.105-.339-.339-.656-3.608-.705-7.266-.072-5.39-.365-6.544-1.547-6.09-3.766 1.445 2.689-12.678 9.51-20.807 2.615-3.118 6.055-7.261 7.644-9.209 1.589-1.947 4.138-4.186 5.665-4.976l2.777-1.436.672 3.982c.37 2.19.9 3.982 1.178 3.982.277 0 1.648-.9 3.047-2 4.957-3.9 6.672-1.511 4.073 5.675-1.128 3.12-1.006 3.517 2.034 6.655 1.78 1.835 3.688 4.978 4.242 6.984.722 2.614 2.27 4.516 5.465 6.715 2.452 1.687 4.458 3.642 4.458 4.345s-1.16 2.367-2.577 3.699c-2.22 2.086-3.55 2.422-9.586 2.424-6.437.003-7.205.232-9.422 2.809-2.918 3.39-3.083 7.626-.518 13.273 2.002 4.407 6.009 8.108 9.812 9.063 3.34.838 3.629.133 1.649-4.018-1.54-3.231-2.169-3.641-5.793-3.784-4.042-.16-4.045-.162-.573-.581 1.92-.232 3.825-.947 4.234-1.59.552-.867.748-.846.76.081.008.71 1.42 1.315 3.264 1.4 3.025.14 3.06.179.5.566-3.211.487-3.212.49-1.224 4.334 2.165 4.187 8.46 3.886 8.49-.407.011-1.615.23-1.802.891-.76.706 1.115 1.587.842 4.532-1.404 2.086-1.591 3.435-3.367 3.14-4.134-.309-.804.175-1.347 1.203-1.349 1.99-.005 16.907-14.64 15.924-15.624-.361-.361-1.455-.038-2.431.719-1.514 1.174-1.497 1.05.117-.843 1.741-2.041 1.775-2.517.432-5.983-.933-2.407-2.062-3.715-3.13-3.627-.92.075-1.425-.263-1.124-.75 1.197-1.937 3.366-.708 4.555 2.578 1.05 2.903 1.506 3.277 2.814 2.299 1.303-.975 1.355-.936.312.234-.688.77-1.234 2.324-1.214 3.451.032 1.824.304 1.722 2.463-.92 1.647-2.016 2.244-3.704 1.856-5.25-.338-1.346-.118-2.28.536-2.28.61 0 1.109-.653 1.109-1.453 0-2.503-2.261-6.547-3.66-6.547-1.559 0-1.81 2.592-.34 3.5.55.34 1 1.128 1 1.75s-.607.303-1.349-.711c-.741-1.014-1.857-1.53-2.48-1.145s-.353-.66.598-2.321c1.708-2.982 1.695-3.057-1.02-5.774-2.047-2.05-2.75-2.343-2.75-1.148 0 .882.676 2.165 1.5 2.85s1.486 1.752 1.467 2.372c-.018.62-.939.04-2.046-1.29-1.872-2.25-2.129-2.303-3.666-.766s-1.497 1.864.576 4.668C79.791 28.644 80.407 30 79.934 30s-1.463-1.125-2.2-2.5c-1.493-2.79-2.164-2.972-5.315-1.433-2.1 1.026-2.095.996.108-.786l2.292-1.853-2.35-2.207c-1.754-1.648-2.636-1.92-3.485-1.07-.85.85-1.009.646-.63-.804.357-1.363-.255-2.35-2.056-3.313-2.626-1.405-2.416-1.448-8.968 1.824-.497.248-.571-.088-.164-.747 1.05-1.697-1.366-4.241-3.845-4.05-1.148.088-3.185.11-4.527.05-2.36-.107-2.377-.159-.5-1.549 1.918-1.421 1.917-1.456-.058-2.918-1.944-1.44-1.918-1.501.92-2.213 3.82-.959 14.583.787 21.863 3.546 15.637 5.927 28.078 26.414 26.352 43.397-1.324 13.032-12.344 28.94-23.929 34.547-3.413 1.653-7.45 3.296-8.968 3.653-2.305.542-2.655.372-2.12-1.024.576-1.5-.354-1.652-9.021-1.477-5.315.107-9.949-.09-10.297-.439-.349-.348 3.716-.634 9.033-.634 5.778 0 9.667-.402 9.667-1 0-1.124-17.447-1.277-20.221-.176-1.269.503-3.941-1.431-10.171-7.36-6.832-6.501-8.53-8.705-8.87-11.503-.418-3.46-.419-3.46-.579.537-.152 3.81.288 4.43 9.414 13.25L40.882 91h9.927c5.95 0 9.926.4 9.926 1 0 1.488-14.629 1.103-20.749-.545zm-12.51-11.196c-3.666-3.667-6.917-6.416-7.223-6.11-.307.307 2.427 3.573 6.076 7.258 3.648 3.684 6.9 6.433 7.224 6.109s-2.41-3.59-6.076-7.257zm46.477 2.557c-1.528-1.528-2.655-.4-1.807 1.807.5 1.304.933 1.433 1.823.544.89-.89.886-1.45-.016-2.351zm-8.439 1.017c-.274-.824-4.079-1.098-12.926-.932l-12.537.235-6.54-7.063c-4.996-5.397-6.786-6.764-7.587-5.798-.79.95.833 2.936 6.53 7.994l7.58 6.73h12.936c9.41 0 12.829-.318 12.546-1.166zm-15.376-3.4c4.967.744 6.818-.642 4.266-3.194-1.296-1.296-1.838-1.344-3.128-.273-.994.825-3.03 1.097-5.614.75-3.06-.41-4.198-.172-4.636.97-.755 1.966 1.744 3.53 3.417 2.141.762-.632 3.052-.79 5.695-.395zm31.598-.81c0-1.048-1.138-1.257-4.75-.873l-4.75.505 2.937-3.128C76.787 74.407 78.833 73 79.718 73c1.983 0 7.588-5.82 12.037-12.5 3.895-5.846 4.904-13.302 2.764-20.424-1.583-5.269-3.285-6.22-4.236-2.37-.688 2.783-6.06 11.89-7.363 12.483-.377.171-3.822 3.687-7.656 7.812l-6.97 7.5 7.334-7c7.797-7.442 8.11-6.183.64 2.569-2.482 2.907-4.313 5.485-4.069 5.729.64.64 8.535-5.781 8.535-6.941 0-.537.419-.717.93-.401s-.389 2.018-2 3.782c-1.611 1.764-2.93 3.557-2.93 3.984 0 .428-1.237.81-2.75.85-1.857.049-3.674 1.184-5.598 3.5-3.27 3.934-2.18 4.684 1.348.928 2.34-2.491 4.445-3.035 7.384-1.907 1.22.468.866 1.153-1.668 3.233-1.769 1.452-3.575 3.21-4.015 3.907-1.146 1.815-4.373 1.563-5.126-.4-.488-1.271-.918-1.39-1.807-.5-.642.641-2.765 1.223-4.718 1.292-3.544.125-3.543.126.682.815 2.327.379 4.54.997 4.916 1.374.377.377 4.21.686 8.52.686 5.985 0 7.832-.325 7.832-1.378zm-1.955-10.797c.024-.73 2.13-3.576 4.68-6.326 4.893-5.277 4.764-4.943-1.089 2.826-2 2.655-3.616 4.23-3.591 3.5zm6.657 5.924c2.948-3.234 7.47-10.74 7.107-11.795-.17-.494-2.901 2.049-6.07 5.65-3.169 3.602-5.505 6.964-5.191 7.472.89 1.44 1.935 1.106 4.154-1.328zm-18.702-5.418c0-.978-1.863-.017-4.75 2.45-4.665 3.987-4.02 4.93.75 1.097 2.2-1.768 4-3.364 4-3.547zm-17 4.826c0-.463-1.758-1.369-3.907-2.013-4.07-1.219-9.517-6.501-11.16-10.822-1.661-4.368-1.105-10.835 1.18-13.742 1.164-1.478 1.872-2.93 1.576-3.226-1.197-1.197-4.943 1.012-6.754 3.983-2.315 3.797-2.457 7.432-.441 11.296.821 1.576 1.496 3.679 1.5 4.674.003.995.42 1.553.925 1.24s2.204.99 3.774 2.894c3.741 4.54 13.307 8.647 13.307 5.715zm-19.61-7.659c-2.5-3.575-4.693-6.5-4.874-6.5s.163 1.602.764 3.56c.895 2.917 6.576 9.44 8.221 9.44.238 0-1.613-2.925-4.112-6.5zm-10.716-8.38c-.46-2.299-.232-2.855 1.125-2.75 1.078.083 1.701-.602 1.701-1.87 0-1.214-.59-1.909-1.5-1.768-2.133.329-2.571-8.012-.511-9.722 1.682-1.396 1.12-3.01-1.048-3.01-1.167 0-1.44 2.09-1.44 11 0 7.482.36 11 1.124 11 .707 0 .91-1.072.55-2.88zm10.625-12.924 3.358-3.255 9.751 1.15c10.466 1.234 11.82.873 12.122-3.242.1-1.36-1.116-3.303-3.231-5.16-1.866-1.638-4.068-4.595-4.893-6.57-1.785-4.272-4.896-7.784-8.605-9.714-3.848-2.002-4.333-1.838-6.935 2.345-3.286 5.281-3.282 5.25-.726 5.25h2.306l-2.223 1.557c-4.984 3.491-1.81 4.445 5.799 1.742 5.176-1.838 6.839-1.297 9.121 2.968.953 1.78.774 1.875-2.304 1.217-1.836-.393-3.912-1.177-4.612-1.742-1.415-1.14-2.505-.451-2.834 1.79-.128.874.868 1.71 2.446 2.052 3.689.8 15.249 4.497 12.162 3.89-14.038-2.765-15.437-2.835-19.376-.966-4.484 2.128-7.615 6.679-7.62 11.075-.006 4.187 1.295 5.198 2.2 1.709.405-1.563 2.247-4.307 4.094-6.097zM25.735 33.86c0-1.135-2.866-2.33-3.667-1.529-.32.32-.317 1.268.005 2.107.606 1.58 3.662 1.097 3.662-.578zm18-2.862c0-.55-.45-1-1-1s-1 .45-1 1 .45 1 1 1 1-.45 1-1zm-21.543-4.93c.74-1.197-1.142-2.383-2.474-1.56C18.6 25.2 19.334 27 20.734 27c.485 0 1.141-.419 1.458-.93zm6.539-7.553c1.271-6.124 3.567-9.036 2.456-3.115-.683 3.64.747 5.125 1.94 2.016.9-2.344.736-11.418-.206-11.418-1.472 0-5.895 5.442-6.913 8.506-1.075 3.234-.568 9.494.769 9.494.449 0 1.328-2.467 1.954-5.482zm49.082 2.889c1.13-1.361.964-1.87-1.128-3.478-2.997-2.303-3.842-2.375-4.603-.39-.56 1.457 2.142 5.462 3.685 5.462.397 0 1.318-.717 2.046-1.594zm-6.398-6.52c-.272-1.039-.086-1.636.413-1.328.498.308.906.07.906-.531 0-2.049-4.36-2.929-6.25-1.261-1.47 1.297-1.75 1.315-1.75.108 0-1.7-5.722-4.132-6.554-2.785-.875 1.415.283 2.626 3.217 3.363 1.475.37 4.045 1.74 5.712 3.044 3.313 2.593 5.078 2.343 4.306-.61zm8.32 2.474c0-1.06-3.395-3.296-5-3.295-1.043.001-.78.602.86 1.968 2.358 1.965 4.14 2.536 4.14 1.327zM42.66 13.305c.561-2.031.8-3.914.53-4.183-.898-.898-2.41 1.403-3.062 4.658-.91 4.554 1.256 4.148 2.532-.475zm19.074.744c0-.458-1.125-1.115-2.5-1.46s-2.5-1.246-2.5-2.002c0-1.672-2.452-2.735-4.5-1.95C50.39 9.346 50.254 11 52.04 11c.718 0 2.81 1.11 4.65 2.467 3.123 2.305 5.044 2.527 5.044.583zm17.36 75.179c.79-1.28 6.64-5.61 6.64-4.915 0 .247-1.652 1.71-3.67 3.25-2.02 1.54-3.356 2.289-2.97 1.664zm-61.85-2.212c-.737-1.194.199-3.016 1.55-3.016 1.216 0 1.224 2.706.01 3.457-.513.316-1.214.118-1.56-.441zm89.414-1.652c-2.23-2.425-2.253-2.547-.292-1.528 1.173.61 2.397 1.795 2.719 2.636.818 2.132.362 1.924-2.427-1.108zM88.21 82.96c-.958-1.55.738-3.065 2.33-2.081 1.031.637.998 1.038-.17 2.006-1.077.895-1.641.914-2.16.075zM10.606 79.25c-1.244-1.586-1.208-1.622.378-.378.962.755 1.75 1.542 1.75 1.75 0 .823-.821.293-2.128-1.372zM93.234 76c-.34-.55-.352-1.43-.027-1.957.823-1.33 3.527-.132 3.527 1.564 0 1.599-2.576 1.888-3.5.393zM13.207 65.956c-.757-1.226 1.27-3.97 2.9-3.926.62.017.359.478-.581 1.026-.942.55-1.455 1.657-1.143 2.47.647 1.685-.207 1.997-1.176.43zM2.234 62.999c.34-.55 1.042-1 1.56-1s.94.45.94 1-.701 1-1.559 1-1.28-.45-.94-1zm55.418.29c-.045-.434-.25-2.14-.455-3.79-.206-1.65-.117-2.325.197-1.5.314.825 1.134 1.956 1.822 2.513.996.806.973 1.274-.115 2.29-.751.702-1.403.921-1.449.487zM13.365 49.952c.072-6.076.357-11.274.634-11.55.276-.276.556 4.695.623 11.048.067 6.352-.218 11.55-.633 11.55-.415 0-.696-4.972-.624-11.048zm49.12 10.385c.687-.278 1.812-.278 2.5 0s.124.504-1.25.504-1.938-.227-1.25-.504zm-16.75-2.766c0-.786-.708-2.136-1.572-3-.864-.865-1.1-1.572-.525-1.572.612 0 .849-1.35.57-3.25l-.476-3.25.959 2.915c.527 1.603 1.54 3.284 2.251 3.735 1.026.65 1.03.823.023.835-.852.01-1.063.835-.641 2.515.345 1.375.353 2.5.019 2.5s-.609-.643-.609-1.428zm21.078-2.155c.048-1.165.285-1.402.605-.604.288.721.253 1.584-.08 1.916-.332.333-.568-.258-.525-1.312zm-10.943-.667c-.074-.962-.923-1.785-1.886-1.829-1.045-.047-1.247-.282-.5-.583.688-.278 1.264-1.255 1.28-2.171.028-1.487.143-1.475 1.066.112.57.978.842 2.778.606 4-.29 1.505-.473 1.657-.566.471zm3.677-3.433c.722-.289 1.584-.253 1.916.079.333.332-.258.569-1.312.525-1.165-.048-1.402-.285-.604-.604zM.235 49.999c-.4-.646-.276-1.624.274-2.174.667-.667 1.242-.609 1.726.174.399.646.275 1.624-.275 2.174C1.294 50.84.72 50.782.235 50zm63.583.59c.937-.92 13.19-4.65 13.677-4.163.29.29-.1.723-.867.964-.766.241-3.61 1.152-6.321 2.024-4.803 1.545-7.331 2.003-6.489 1.176zm38.417-.59c-.4-.646-.276-1.624.274-2.174.667-.667 1.242-.609 1.726.174.399.646.275 1.624-.275 2.174-.666.667-1.241.609-1.725-.174zm-39.5-10c0-.55.476-1 1.059-1s.78.45.44 1-.816 1-1.058 1-.441-.45-.441-1zm9.566-2.893c-.277-.448.607-1.32 1.965-1.94 2.983-1.358 3.086-1.14.503 1.071-1.08.926-2.191 1.317-2.468.869zm-58.608-1.657c-1.063-1.28-.997-1.84.377-3.214 1.552-1.553 1.776-1.553 3.328 0 1.375 1.374 1.44 1.933.378 3.214-.708.852-1.626 1.55-2.042 1.55s-1.334-.698-2.041-1.55zm3.595-.537c1.03-1.667-1.287-3.58-2.666-2.2-1.154 1.154-.432 3.287 1.112 3.287.485 0 1.185-.49 1.554-1.087zm53.01-3.62c-.542-1.425-.428-1.54.56-.56.683.679.99 1.486.683 1.794-.308.307-.867-.248-1.243-1.234zM59.734 31c0-.55.477-1 1.06-1s.78.45.44 1-.816 1-1.059 1-.44-.45-.44-1zm33.984-5.317c-3.157-5.318-3.485-6.111-2.199-5.316.575.355 1.234.305 1.466-.11.232-.417.265-.144.074.606-.192.75.608 2.91 1.778 4.802 1.169 1.892 1.955 3.611 1.745 3.82-.209.21-1.498-1.501-2.864-3.802zm-35.377 1.735c-.838-2.185-.942-2.036 2.393-3.418 3.503-1.45 3.565-1.671 1.25-4.421-1.708-2.03-1.702-2.04.25-.46 1.1.891 2.675 1.833 3.5 2.093.978.308.032 1.225-2.717 2.634-2.905 1.489-4.038 2.627-3.643 3.658.316.823.35 1.496.074 1.496s-.773-.712-1.107-1.582zm8.908-1.137-1.756-2.78 2.315 2.221c1.273 1.223 2.064 2.474 1.756 2.782-.307.307-1.35-.693-2.315-2.223zM9.201 25.063c.835-1.616 1.973-3.218 2.528-3.56.554-.344.063.978-1.092 2.936-2.533 4.293-3.565 4.74-1.436.624zm86.533-1.064c-.589-1.1-.845-2-.57-2s.981.9 1.57 2 .846 2 .57 2-.981-.9-1.57-2zm-47.187-3.683c.722-.289 1.585-.253 1.917.079.332.332-.259.569-1.313.525-1.165-.048-1.402-.285-.604-.604zm-36.765-3.055c1.27-1.78 2.543-3.004 2.828-2.72.285.286-.754 1.743-2.31 3.238L9.472 20.5zm3.754-.361c1.814-1.98 3.164-4.072 2.998-4.65-.358-1.256 1.524-1.78 1.937-.54.158.473-1.63 2.644-3.974 4.825-4.01 3.732-4.067 3.753-.961.365zM54.234 19c-.34-.55-.142-1 .44-1s1.06.45 1.06 1-.199 1-.441 1-.72-.45-1.06-1zm33.139-1.695c-1.126-1.126-.686-2.306.86-2.306.825 0 1.5.424 1.5.941 0 1.261-1.561 2.164-2.36 1.365zm-4.68-3.855c-.73-.878-3.044-2.473-5.143-3.544-2.1-1.071-3.817-2.173-3.817-2.448 0-.628 6.825 2.879 9.499 4.881 1.099.823 1.725 1.77 1.392 2.102-.333.334-1.202-.112-1.931-.99zm1.913-2.201c-1.244-1.586-1.209-1.621.377-.378C86.65 12.178 87.18 13 86.356 13c-.208 0-.996-.787-1.75-1.75zM51.373 2.305C50.246 1.18 50.687 0 52.233 0c.825 0 1.5.423 1.5.941 0 1.261-1.561 2.164-2.36 1.365zm13.173-.99c.721-.288 1.584-.252 1.916.08.333.332-.258.568-1.312.525-1.165-.048-1.402-.285-.604-.604zM43.984.31c.962-.252 2.537-.252 3.5 0 .962.251.175.457-1.75.457S43.02.561 43.984.31zm14 0c.962-.252 2.537-.252 3.5 0 .962.251.175.457-1.75.457S57.02.561 57.984.31z"/><path fill="none" d="M.397-.397h103.37v94.444H.397z"/></svg>